<svg width="512" height="512" viewBox="0 0 512 512" fill="none" xmlns="http://www.w3.org/2000/svg">
<g clip-path="url(#clip0_150_1224)">
<path d="M256 42.6737C313.158 42.8616 367.867 65.9059 407.931 106.672H341.33C329.549 106.672 319.998 116.222 319.998 128.004C319.998 139.786 329.549 149.336 341.33 149.336H429.712C451.585 149.324 469.314 131.595 469.326 109.722V21.3403C469.326 9.55869 459.776 0.00798693 447.994 0.00798693C436.212 0.00798693 426.662 9.55869 426.662 21.3403V65.6699C321.772 -28.7941 160.164 -20.3424 65.6999 84.5473C28.7321 125.596 6.05781 177.517 1.07496 232.534C-0.0210038 244.347 8.66773 254.812 20.4814 255.908C21.1213 255.967 21.7643 255.998 22.4083 256C33.221 256.138 42.3617 248.023 43.5066 237.27C53.3483 127.209 145.5 42.8187 256 42.6737Z" fill="white"/>
<path d="M489.614 256C478.801 255.862 469.66 263.977 468.515 274.73C458.336 391.941 355.065 478.706 237.853 468.525C187.14 464.12 139.681 441.701 104.069 405.328H170.67C182.451 405.328 192.002 395.778 192.002 383.996C192.002 372.214 182.451 362.664 170.67 362.664H82.2883C60.421 362.652 42.6856 380.369 42.6736 402.235C42.6736 402.249 42.6736 402.263 42.6736 402.278V490.66C42.6736 502.441 52.2243 511.992 64.0059 511.992C75.7876 511.992 85.3383 502.441 85.3383 490.66V446.33C190.228 540.794 351.835 532.342 446.299 427.453C483.268 386.404 505.942 334.483 510.925 279.465C512.021 267.652 503.332 257.187 491.519 256.091C490.886 256.033 490.25 256.002 489.614 256Z" fill="white"/>
</g>
<defs>
<clipPath id="clip0_150_1224">
<rect width="512" height="512" fill="white"/>
</clipPath>
</defs>
</svg>
