<svg width="147" height="24" viewBox="0 0 147 24" fill="none" xmlns="http://www.w3.org/2000/svg">
<path d="M13.0909 9.1875C12.9716 8.77273 12.804 8.40625 12.5881 8.08807C12.3722 7.7642 12.108 7.49148 11.7955 7.26989C11.4886 7.04261 11.1364 6.86932 10.7386 6.75C10.3466 6.63068 9.91193 6.57102 9.43466 6.57102C8.54261 6.57102 7.75852 6.79261 7.08239 7.23579C6.41193 7.67898 5.8892 8.32386 5.5142 9.17045C5.1392 10.0114 4.9517 11.0398 4.9517 12.2557C4.9517 13.4716 5.13636 14.5057 5.50568 15.358C5.875 16.2102 6.39773 16.8608 7.07386 17.3097C7.75 17.7528 8.5483 17.9744 9.46875 17.9744C10.304 17.9744 11.017 17.8267 11.608 17.5312C12.2045 17.2301 12.6591 16.8068 12.9716 16.2614C13.2898 15.7159 13.4489 15.071 13.4489 14.3267L14.1989 14.4375H9.69886V11.6591H17.0028V13.858C17.0028 15.392 16.679 16.7102 16.0312 17.8125C15.3835 18.9091 14.4915 19.7557 13.3551 20.3523C12.2188 20.9432 10.9176 21.2386 9.4517 21.2386C7.81534 21.2386 6.37784 20.8778 5.1392 20.1562C3.90057 19.429 2.93466 18.3977 2.24148 17.0625C1.55398 15.7216 1.21023 14.1307 1.21023 12.2898C1.21023 10.875 1.41477 9.61364 1.82386 8.50568C2.23864 7.39205 2.81818 6.44886 3.5625 5.67614C4.30682 4.90341 5.1733 4.31534 6.16193 3.91193C7.15057 3.50852 8.22159 3.30682 9.375 3.30682C10.3636 3.30682 11.2841 3.4517 12.1364 3.74148C12.9886 4.02557 13.7443 4.42898 14.4034 4.9517C15.0682 5.47443 15.6108 6.09659 16.0312 6.81818C16.4517 7.53409 16.7216 8.32386 16.8409 9.1875H13.0909ZM22.9643 21H19.0098L25.0353 3.54545H29.791L35.8081 21H31.8535L27.4814 7.53409H27.345L22.9643 21ZM22.7172 14.1392H32.0581V17.0199H22.7172V14.1392ZM44.8164 21H38.6289V3.54545H44.8676C46.6232 3.54545 48.1346 3.89489 49.4016 4.59375C50.6687 5.28693 51.6431 6.28409 52.3249 7.58523C53.0124 8.88636 53.3562 10.4432 53.3562 12.2557C53.3562 14.0739 53.0124 15.6364 52.3249 16.9432C51.6431 18.25 50.663 19.2528 49.3846 19.9517C48.1119 20.6506 46.5891 21 44.8164 21ZM42.3193 17.8381H44.663C45.7539 17.8381 46.6715 17.6449 47.4159 17.2585C48.1659 16.8665 48.7284 16.2614 49.1034 15.4432C49.484 14.6193 49.6744 13.5568 49.6744 12.2557C49.6744 10.9659 49.484 9.91193 49.1034 9.09375C48.7284 8.27557 48.1687 7.6733 47.4244 7.28693C46.6801 6.90057 45.7624 6.70739 44.6715 6.70739H42.3193V17.8381ZM68.3837 9.1875C68.2644 8.77273 68.0968 8.40625 67.8809 8.08807C67.665 7.7642 67.4008 7.49148 67.0883 7.26989C66.7814 7.04261 66.4292 6.86932 66.0314 6.75C65.6394 6.63068 65.2047 6.57102 64.7275 6.57102C63.8354 6.57102 63.0513 6.79261 62.3752 7.23579C61.7047 7.67898 61.182 8.32386 60.807 9.17045C60.432 10.0114 60.2445 11.0398 60.2445 12.2557C60.2445 13.4716 60.4292 14.5057 60.7985 15.358C61.1678 16.2102 61.6905 16.8608 62.3667 17.3097C63.0428 17.7528 63.8411 17.9744 64.7616 17.9744C65.5968 17.9744 66.3099 17.8267 66.9008 17.5312C67.4974 17.2301 67.9519 16.8068 68.2644 16.2614C68.5826 15.7159 68.7417 15.071 68.7417 14.3267L69.4917 14.4375H64.9917V11.6591H72.2957V13.858C72.2957 15.392 71.9718 16.7102 71.3241 17.8125C70.6763 18.9091 69.7843 19.7557 68.6479 20.3523C67.5116 20.9432 66.2104 21.2386 64.7445 21.2386C63.1082 21.2386 61.6707 20.8778 60.432 20.1562C59.1934 19.429 58.2275 18.3977 57.5343 17.0625C56.8468 15.7216 56.503 14.1307 56.503 12.2898C56.503 10.875 56.7076 9.61364 57.1167 8.50568C57.5314 7.39205 58.111 6.44886 58.8553 5.67614C59.5996 4.90341 60.4661 4.31534 61.4547 3.91193C62.4434 3.50852 63.5144 3.30682 64.6678 3.30682C65.6564 3.30682 66.5769 3.4517 67.4292 3.74148C68.2814 4.02557 69.0371 4.42898 69.6962 4.9517C70.361 5.47443 70.9036 6.09659 71.3241 6.81818C71.7445 7.53409 72.0144 8.32386 72.1337 9.1875H68.3837ZM75.7877 21V3.54545H87.549V6.58807H79.478V10.7472H86.9439V13.7898H79.478V17.9574H87.5831V21H75.7877ZM90.5382 6.58807V3.54545H104.873V6.58807H99.5297V21H95.882V6.58807H90.5382ZM117.423 8.56534C117.355 7.87784 117.062 7.34375 116.545 6.96307C116.028 6.58239 115.326 6.39204 114.44 6.39204C113.838 6.39204 113.329 6.47727 112.914 6.64773C112.5 6.8125 112.182 7.04261 111.96 7.33807C111.744 7.63352 111.636 7.96875 111.636 8.34375C111.625 8.65625 111.69 8.92898 111.832 9.16193C111.98 9.39489 112.182 9.59659 112.437 9.76705C112.693 9.93182 112.988 10.0767 113.324 10.2017C113.659 10.321 114.017 10.4233 114.397 10.5085L115.966 10.8835C116.727 11.054 117.426 11.2812 118.062 11.5653C118.699 11.8494 119.25 12.1989 119.716 12.6136C120.182 13.0284 120.542 13.517 120.798 14.0795C121.059 14.642 121.193 15.2869 121.199 16.0142C121.193 17.0824 120.92 18.0085 120.38 18.7926C119.846 19.571 119.074 20.1761 118.062 20.608C117.057 21.0341 115.843 21.2472 114.423 21.2472C113.014 21.2472 111.787 21.0312 110.741 20.5994C109.701 20.1676 108.889 19.5284 108.304 18.6818C107.724 17.8295 107.42 16.7756 107.392 15.5199H110.963C111.003 16.1051 111.17 16.5937 111.466 16.9858C111.767 17.3722 112.167 17.6648 112.667 17.8636C113.173 18.0568 113.744 18.1534 114.38 18.1534C115.005 18.1534 115.548 18.0625 116.008 17.8807C116.474 17.6989 116.835 17.446 117.091 17.1222C117.346 16.7983 117.474 16.4261 117.474 16.0057C117.474 15.6136 117.358 15.2841 117.125 15.017C116.897 14.75 116.562 14.5227 116.119 14.3352C115.682 14.1477 115.145 13.9773 114.508 13.8239L112.608 13.3466C111.136 12.9886 109.974 12.429 109.122 11.6676C108.27 10.9062 107.846 9.88068 107.852 8.59091C107.846 7.53409 108.128 6.6108 108.696 5.82102C109.27 5.03125 110.057 4.41477 111.057 3.97159C112.057 3.52841 113.193 3.30682 114.466 3.30682C115.761 3.30682 116.892 3.52841 117.858 3.97159C118.829 4.41477 119.585 5.03125 120.125 5.82102C120.664 6.6108 120.943 7.52557 120.96 8.56534H117.423ZM128.091 3.54545V21H124.401V3.54545H128.091ZM131.183 6.58807V3.54545H145.518V6.58807H140.174V21H136.526V6.58807H131.183Z" fill="white"/>
</svg>
