<svg width="19" height="19" viewBox="0 0 19 19" fill="none" xmlns="http://www.w3.org/2000/svg">
<path d="M7.02637 16.25C7.64769 16.25 8.15137 15.7463 8.15137 15.125C8.15137 14.5037 7.64769 14 7.02637 14C6.40505 14 5.90137 14.5037 5.90137 15.125C5.90137 15.7463 6.40505 16.25 7.02637 16.25Z" fill="white"/>
<path d="M14.9014 16.25C15.5227 16.25 16.0264 15.7463 16.0264 15.125C16.0264 14.5037 15.5227 14 14.9014 14C14.28 14 13.7764 14.5037 13.7764 15.125C13.7764 15.7463 14.28 16.25 14.9014 16.25Z" fill="white"/>
<path d="M16.8982 4.74617C16.8192 4.64951 16.7197 4.57166 16.6068 4.51827C16.4939 4.46487 16.3706 4.43729 16.2457 4.4375H5.54594L5.33043 3.21477C5.30745 3.08452 5.23931 2.96654 5.13799 2.88154C5.03666 2.79655 4.90862 2.74997 4.77637 2.75H2.52637C2.37718 2.75 2.23411 2.80926 2.12862 2.91475C2.02313 3.02024 1.96387 3.16332 1.96387 3.3125C1.96387 3.46168 2.02313 3.60476 2.12862 3.71025C2.23411 3.81574 2.37718 3.875 2.52637 3.875H4.30457L5.90981 12.9727C5.93278 13.103 6.00092 13.221 6.10225 13.306C6.20358 13.391 6.33161 13.4375 6.46387 13.4375H15.4639C15.6131 13.4375 15.7561 13.3782 15.8616 13.2727C15.9671 13.1673 16.0264 13.0242 16.0264 12.875C16.0264 12.7258 15.9671 12.5827 15.8616 12.4773C15.7561 12.3718 15.6131 12.3125 15.4639 12.3125H6.93566L6.73738 11.1875H15.2332C15.4283 11.1873 15.6173 11.1196 15.7682 10.996C15.9192 10.8725 16.0228 10.7005 16.0615 10.5093L17.074 5.44684C17.0984 5.32432 17.0953 5.19791 17.0649 5.07674C17.0345 4.95557 16.9776 4.84266 16.8982 4.74617Z" fill="white"/>
</svg>
