<svg width="173" height="24" viewBox="0 0 173 24" fill="none" xmlns="http://www.w3.org/2000/svg">
<g clip-path="url(#clip0_47_1016)">
<path d="M9.99984 20.3334C14.6022 20.3334 18.3332 16.6024 18.3332 12C18.3332 7.39765 14.6022 3.66669 9.99984 3.66669C5.39746 3.66669 1.6665 7.39765 1.6665 12C1.6665 16.6024 5.39746 20.3334 9.99984 20.3334Z" stroke="#828282" stroke-width="1.5" stroke-linecap="round" stroke-linejoin="round"/>
<path d="M12.4998 10.1482C12.4998 10.1482 11.4704 8.66669 9.75474 8.66669C8.03905 8.66669 6.6665 10.1482 6.6665 12C6.6665 13.8519 8.03905 15.3334 9.75474 15.3334C11.4704 15.3334 12.4998 13.8519 12.4998 13.8519" stroke="#828282" stroke-width="1.5" stroke-linecap="round" stroke-linejoin="round"/>
</g>
<path d="M39.0909 9.1875C38.9716 8.77273 38.804 8.40625 38.5881 8.08807C38.3722 7.7642 38.108 7.49148 37.7955 7.26989C37.4886 7.04261 37.1364 6.86932 36.7386 6.75C36.3466 6.63068 35.9119 6.57102 35.4347 6.57102C34.5426 6.57102 33.7585 6.79261 33.0824 7.23579C32.4119 7.67898 31.8892 8.32386 31.5142 9.17045C31.1392 10.0114 30.9517 11.0398 30.9517 12.2557C30.9517 13.4716 31.1364 14.5057 31.5057 15.358C31.875 16.2102 32.3977 16.8608 33.0739 17.3097C33.75 17.7528 34.5483 17.9744 35.4688 17.9744C36.304 17.9744 37.017 17.8267 37.608 17.5312C38.2045 17.2301 38.6591 16.8068 38.9716 16.2614C39.2898 15.7159 39.4489 15.071 39.4489 14.3267L40.1989 14.4375H35.6989V11.6591H43.0028V13.858C43.0028 15.392 42.679 16.7102 42.0312 17.8125C41.3835 18.9091 40.4915 19.7557 39.3551 20.3523C38.2188 20.9432 36.9176 21.2386 35.4517 21.2386C33.8153 21.2386 32.3778 20.8778 31.1392 20.1562C29.9006 19.429 28.9347 18.3977 28.2415 17.0625C27.554 15.7216 27.2102 14.1307 27.2102 12.2898C27.2102 10.875 27.4148 9.61364 27.8239 8.50568C28.2386 7.39205 28.8182 6.44886 29.5625 5.67614C30.3068 4.90341 31.1733 4.31534 32.1619 3.91193C33.1506 3.50852 34.2216 3.30682 35.375 3.30682C36.3636 3.30682 37.2841 3.4517 38.1364 3.74148C38.9886 4.02557 39.7443 4.42898 40.4034 4.9517C41.0682 5.47443 41.6108 6.09659 42.0312 6.81818C42.4517 7.53409 42.7216 8.32386 42.8409 9.1875H39.0909ZM48.9643 21H45.0098L51.0353 3.54545H55.791L61.8081 21H57.8535L53.4814 7.53409H53.345L48.9643 21ZM48.7172 14.1392H58.0581V17.0199H48.7172V14.1392ZM70.8164 21H64.6289V3.54545H70.8676C72.6232 3.54545 74.1346 3.89489 75.4016 4.59375C76.6687 5.28693 77.6431 6.28409 78.3249 7.58523C79.0124 8.88636 79.3562 10.4432 79.3562 12.2557C79.3562 14.0739 79.0124 15.6364 78.3249 16.9432C77.6431 18.25 76.663 19.2528 75.3846 19.9517C74.1119 20.6506 72.5891 21 70.8164 21ZM68.3193 17.8381H70.663C71.7539 17.8381 72.6715 17.6449 73.4159 17.2585C74.1659 16.8665 74.7284 16.2614 75.1034 15.4432C75.484 14.6193 75.6744 13.5568 75.6744 12.2557C75.6744 10.9659 75.484 9.91193 75.1034 9.09375C74.7284 8.27557 74.1687 7.6733 73.4244 7.28693C72.6801 6.90057 71.7624 6.70739 70.6715 6.70739H68.3193V17.8381ZM94.3837 9.1875C94.2644 8.77273 94.0968 8.40625 93.8809 8.08807C93.665 7.7642 93.4008 7.49148 93.0883 7.26989C92.7814 7.04261 92.4292 6.86932 92.0314 6.75C91.6394 6.63068 91.2047 6.57102 90.7275 6.57102C89.8354 6.57102 89.0513 6.79261 88.3752 7.23579C87.7047 7.67898 87.182 8.32386 86.807 9.17045C86.432 10.0114 86.2445 11.0398 86.2445 12.2557C86.2445 13.4716 86.4292 14.5057 86.7985 15.358C87.1678 16.2102 87.6905 16.8608 88.3667 17.3097C89.0428 17.7528 89.8411 17.9744 90.7616 17.9744C91.5968 17.9744 92.3099 17.8267 92.9008 17.5312C93.4974 17.2301 93.9519 16.8068 94.2644 16.2614C94.5826 15.7159 94.7417 15.071 94.7417 14.3267L95.4917 14.4375H90.9917V11.6591H98.2957V13.858C98.2957 15.392 97.9718 16.7102 97.3241 17.8125C96.6763 18.9091 95.7843 19.7557 94.6479 20.3523C93.5116 20.9432 92.2104 21.2386 90.7445 21.2386C89.1082 21.2386 87.6707 20.8778 86.432 20.1562C85.1934 19.429 84.2275 18.3977 83.5343 17.0625C82.8468 15.7216 82.503 14.1307 82.503 12.2898C82.503 10.875 82.7076 9.61364 83.1167 8.50568C83.5314 7.39205 84.111 6.44886 84.8553 5.67614C85.5996 4.90341 86.4661 4.31534 87.4547 3.91193C88.4434 3.50852 89.5144 3.30682 90.6678 3.30682C91.6564 3.30682 92.5769 3.4517 93.4292 3.74148C94.2814 4.02557 95.0371 4.42898 95.6962 4.9517C96.361 5.47443 96.9036 6.09659 97.3241 6.81818C97.7445 7.53409 98.0144 8.32386 98.1337 9.1875H94.3837ZM101.788 21V3.54545H113.549V6.58807H105.478V10.7472H112.944V13.7898H105.478V17.9574H113.583V21H101.788ZM116.538 6.58807V3.54545H130.873V6.58807H125.53V21H121.882V6.58807H116.538ZM143.423 8.56534C143.355 7.87784 143.062 7.34375 142.545 6.96307C142.028 6.58239 141.326 6.39204 140.44 6.39204C139.838 6.39204 139.329 6.47727 138.914 6.64773C138.5 6.8125 138.182 7.04261 137.96 7.33807C137.744 7.63352 137.636 7.96875 137.636 8.34375C137.625 8.65625 137.69 8.92898 137.832 9.16193C137.98 9.39489 138.182 9.59659 138.437 9.76705C138.693 9.93182 138.988 10.0767 139.324 10.2017C139.659 10.321 140.017 10.4233 140.397 10.5085L141.966 10.8835C142.727 11.054 143.426 11.2812 144.062 11.5653C144.699 11.8494 145.25 12.1989 145.716 12.6136C146.182 13.0284 146.542 13.517 146.798 14.0795C147.059 14.642 147.193 15.2869 147.199 16.0142C147.193 17.0824 146.92 18.0085 146.38 18.7926C145.846 19.571 145.074 20.1761 144.062 20.608C143.057 21.0341 141.843 21.2472 140.423 21.2472C139.014 21.2472 137.787 21.0312 136.741 20.5994C135.701 20.1676 134.889 19.5284 134.304 18.6818C133.724 17.8295 133.42 16.7756 133.392 15.5199H136.963C137.003 16.1051 137.17 16.5937 137.466 16.9858C137.767 17.3722 138.167 17.6648 138.667 17.8636C139.173 18.0568 139.744 18.1534 140.38 18.1534C141.005 18.1534 141.548 18.0625 142.008 17.8807C142.474 17.6989 142.835 17.446 143.091 17.1222C143.346 16.7983 143.474 16.4261 143.474 16.0057C143.474 15.6136 143.358 15.2841 143.125 15.017C142.897 14.75 142.562 14.5227 142.119 14.3352C141.682 14.1477 141.145 13.9773 140.508 13.8239L138.608 13.3466C137.136 12.9886 135.974 12.429 135.122 11.6676C134.27 10.9062 133.846 9.88068 133.852 8.59091C133.846 7.53409 134.128 6.6108 134.696 5.82102C135.27 5.03125 136.057 4.41477 137.057 3.97159C138.057 3.52841 139.193 3.30682 140.466 3.30682C141.761 3.30682 142.892 3.52841 143.858 3.97159C144.829 4.41477 145.585 5.03125 146.125 5.82102C146.664 6.6108 146.943 7.52557 146.96 8.56534H143.423ZM154.091 3.54545V21H150.401V3.54545H154.091ZM157.183 6.58807V3.54545H171.518V6.58807H166.174V21H162.526V6.58807H157.183Z" fill="#828282"/>
<defs>
<clipPath id="clip0_47_1016">
<rect width="20" height="20" fill="white" transform="translate(0 2)"/>
</clipPath>
</defs>
</svg>
