<svg width="145" height="19" viewBox="0 0 145 19" fill="none" xmlns="http://www.w3.org/2000/svg">
<path d="M12.0909 6.1875C11.9716 5.77273 11.804 5.40625 11.5881 5.08807C11.3722 4.7642 11.108 4.49148 10.7955 4.26989C10.4886 4.04261 10.1364 3.86932 9.73864 3.75C9.34659 3.63068 8.91193 3.57102 8.43466 3.57102C7.54261 3.57102 6.75852 3.79261 6.08239 4.23579C5.41193 4.67898 4.8892 5.32386 4.5142 6.17045C4.1392 7.01136 3.9517 8.03977 3.9517 9.25568C3.9517 10.4716 4.13636 11.5057 4.50568 12.358C4.875 13.2102 5.39773 13.8608 6.07386 14.3097C6.75 14.7528 7.5483 14.9744 8.46875 14.9744C9.30398 14.9744 10.017 14.8267 10.608 14.5312C11.2045 14.2301 11.6591 13.8068 11.9716 13.2614C12.2898 12.7159 12.4489 12.071 12.4489 11.3267L13.1989 11.4375H8.69886V8.65909H16.0028V10.858C16.0028 12.392 15.679 13.7102 15.0312 14.8125C14.3835 15.9091 13.4915 16.7557 12.3551 17.3523C11.2188 17.9432 9.91761 18.2386 8.4517 18.2386C6.81534 18.2386 5.37784 17.8778 4.1392 17.1562C2.90057 16.429 1.93466 15.3977 1.24148 14.0625C0.553977 12.7216 0.210227 11.1307 0.210227 9.28977C0.210227 7.875 0.414773 6.61364 0.823864 5.50568C1.23864 4.39205 1.81818 3.44886 2.5625 2.67614C3.30682 1.90341 4.1733 1.31534 5.16193 0.911931C6.15057 0.508522 7.22159 0.306818 8.375 0.306818C9.36364 0.306818 10.2841 0.451704 11.1364 0.741477C11.9886 1.02557 12.7443 1.42898 13.4034 1.9517C14.0682 2.47443 14.6108 3.09659 15.0312 3.81818C15.4517 4.53409 15.7216 5.32386 15.8409 6.1875H12.0909ZM21.9643 18H18.0098L24.0353 0.545454H28.791L34.8081 18H30.8535L26.4814 4.53409H26.345L21.9643 18ZM21.7172 11.1392H31.0581V14.0199H21.7172V11.1392ZM43.8164 18H37.6289V0.545454H43.8676C45.6232 0.545454 47.1346 0.894886 48.4016 1.59375C49.6687 2.28693 50.6431 3.28409 51.3249 4.58523C52.0124 5.88636 52.3562 7.44318 52.3562 9.25568C52.3562 11.0739 52.0124 12.6364 51.3249 13.9432C50.6431 15.25 49.663 16.2528 48.3846 16.9517C47.1119 17.6506 45.5891 18 43.8164 18ZM41.3193 14.8381H43.663C44.7539 14.8381 45.6715 14.6449 46.4159 14.2585C47.1659 13.8665 47.7284 13.2614 48.1034 12.4432C48.484 11.6193 48.6744 10.5568 48.6744 9.25568C48.6744 7.96591 48.484 6.91193 48.1034 6.09375C47.7284 5.27557 47.1687 4.6733 46.4244 4.28693C45.6801 3.90057 44.7624 3.70739 43.6715 3.70739H41.3193V14.8381ZM67.3837 6.1875C67.2644 5.77273 67.0968 5.40625 66.8809 5.08807C66.665 4.7642 66.4008 4.49148 66.0883 4.26989C65.7814 4.04261 65.4292 3.86932 65.0314 3.75C64.6394 3.63068 64.2047 3.57102 63.7275 3.57102C62.8354 3.57102 62.0513 3.79261 61.3752 4.23579C60.7047 4.67898 60.182 5.32386 59.807 6.17045C59.432 7.01136 59.2445 8.03977 59.2445 9.25568C59.2445 10.4716 59.4292 11.5057 59.7985 12.358C60.1678 13.2102 60.6905 13.8608 61.3667 14.3097C62.0428 14.7528 62.8411 14.9744 63.7616 14.9744C64.5968 14.9744 65.3099 14.8267 65.9008 14.5312C66.4974 14.2301 66.9519 13.8068 67.2644 13.2614C67.5826 12.7159 67.7417 12.071 67.7417 11.3267L68.4917 11.4375H63.9917V8.65909H71.2957V10.858C71.2957 12.392 70.9718 13.7102 70.3241 14.8125C69.6763 15.9091 68.7843 16.7557 67.6479 17.3523C66.5116 17.9432 65.2104 18.2386 63.7445 18.2386C62.1082 18.2386 60.6707 17.8778 59.432 17.1562C58.1934 16.429 57.2275 15.3977 56.5343 14.0625C55.8468 12.7216 55.503 11.1307 55.503 9.28977C55.503 7.875 55.7076 6.61364 56.1167 5.50568C56.5314 4.39205 57.111 3.44886 57.8553 2.67614C58.5996 1.90341 59.4661 1.31534 60.4547 0.911931C61.4434 0.508522 62.5144 0.306818 63.6678 0.306818C64.6564 0.306818 65.5769 0.451704 66.4292 0.741477C67.2814 1.02557 68.0371 1.42898 68.6962 1.9517C69.361 2.47443 69.9036 3.09659 70.3241 3.81818C70.7445 4.53409 71.0144 5.32386 71.1337 6.1875H67.3837ZM74.7877 18V0.545454H86.549V3.58807H78.478V7.74716H85.9439V10.7898H78.478V14.9574H86.5831V18H74.7877ZM89.5382 3.58807V0.545454H103.873V3.58807H98.5297V18H94.882V3.58807H89.5382ZM116.423 5.56534C116.355 4.87784 116.062 4.34375 115.545 3.96307C115.028 3.58239 114.326 3.39204 113.44 3.39204C112.838 3.39204 112.329 3.47727 111.914 3.64773C111.5 3.8125 111.182 4.04261 110.96 4.33807C110.744 4.63352 110.636 4.96875 110.636 5.34375C110.625 5.65625 110.69 5.92898 110.832 6.16193C110.98 6.39489 111.182 6.59659 111.437 6.76705C111.693 6.93182 111.988 7.0767 112.324 7.2017C112.659 7.32102 113.017 7.4233 113.397 7.50852L114.966 7.88352C115.727 8.05398 116.426 8.28125 117.062 8.56534C117.699 8.84943 118.25 9.19886 118.716 9.61364C119.182 10.0284 119.542 10.517 119.798 11.0795C120.059 11.642 120.193 12.2869 120.199 13.0142C120.193 14.0824 119.92 15.0085 119.38 15.7926C118.846 16.571 118.074 17.1761 117.062 17.608C116.057 18.0341 114.843 18.2472 113.423 18.2472C112.014 18.2472 110.787 18.0312 109.741 17.5994C108.701 17.1676 107.889 16.5284 107.304 15.6818C106.724 14.8295 106.42 13.7756 106.392 12.5199H109.963C110.003 13.1051 110.17 13.5937 110.466 13.9858C110.767 14.3722 111.167 14.6648 111.667 14.8636C112.173 15.0568 112.744 15.1534 113.38 15.1534C114.005 15.1534 114.548 15.0625 115.008 14.8807C115.474 14.6989 115.835 14.446 116.091 14.1222C116.346 13.7983 116.474 13.4261 116.474 13.0057C116.474 12.6136 116.358 12.2841 116.125 12.017C115.897 11.75 115.562 11.5227 115.119 11.3352C114.682 11.1477 114.145 10.9773 113.508 10.8239L111.608 10.3466C110.136 9.98864 108.974 9.42898 108.122 8.66761C107.27 7.90625 106.846 6.88068 106.852 5.59091C106.846 4.53409 107.128 3.6108 107.696 2.82102C108.27 2.03125 109.057 1.41477 110.057 0.971591C111.057 0.528409 112.193 0.306818 113.466 0.306818C114.761 0.306818 115.892 0.528409 116.858 0.971591C117.829 1.41477 118.585 2.03125 119.125 2.82102C119.664 3.6108 119.943 4.52557 119.96 5.56534H116.423ZM127.091 0.545454V18H123.401V0.545454H127.091ZM130.183 3.58807V0.545454H144.518V3.58807H139.174V18H135.526V3.58807H130.183Z" fill="#463E55"/>
</svg>
