<svg width="29" height="22" viewBox="0 0 29 22" fill="none" xmlns="http://www.w3.org/2000/svg">
<path d="M24.897 0.27711C25.3215 -0.0923701 25.9864 -0.0923701 26.3967 0.27711C26.8212 0.64659 26.8212 1.25814 26.3967 1.62762L23.8218 3.94643C25.8732 5.6282 27.6135 7.89605 28.9151 10.6226C29.0283 10.8646 29.0283 11.1449 28.9151 11.3743C25.8874 17.7191 20.4969 21.5159 14.4981 21.5159H14.4839C11.7533 21.5159 9.13592 20.7132 6.82976 19.248L4.08501 21.7197C3.87279 21.9108 3.60397 22 3.33516 22C3.06634 22 2.78338 21.9108 2.5853 21.7197C2.2316 21.4012 2.175 20.8916 2.45797 20.5221L2.50041 20.4711L23.4256 1.62762C23.4539 1.60214 23.4822 1.57666 23.4963 1.55118C23.5246 1.5257 23.5529 1.50022 23.5671 1.47474L24.897 0.27711ZM14.5019 0.498671C16.5251 0.498671 18.4917 0.931855 20.3027 1.74726L15.5772 6.00265C15.2376 5.95169 14.8698 5.91347 14.5019 5.91347C11.3752 5.91347 8.84263 8.19405 8.84263 11.0097C8.84263 11.341 8.88507 11.6723 8.94167 11.978L3.70683 16.6921C2.29201 15.2142 1.06112 13.4305 0.0848892 11.3792C-0.0282964 11.1499 -0.0282964 10.8696 0.0848892 10.6275C3.11261 4.28266 8.50307 0.498671 14.4878 0.498671H14.5019ZM19.167 8.13812L17.6248 9.52686C17.8795 9.96004 18.021 10.4697 18.021 11.0048C18.021 12.7503 16.4364 14.1772 14.4981 14.1772C13.9039 14.1772 13.3379 14.0498 12.8569 13.8205L11.3147 15.2092C12.2202 15.7571 13.3238 16.0883 14.4981 16.0883C17.6107 16.0883 20.1432 13.8077 20.1432 11.0048C20.1432 9.9473 19.7754 8.95353 19.167 8.13812Z" fill="white"/>
</svg>
