<svg width="69" height="65" viewBox="0 0 69 65" fill="none" xmlns="http://www.w3.org/2000/svg">
<path d="M34.5 2C16.5508 2 2 15.6553 2 32.5C2 49.3448 16.5508 63 34.5 63C52.4494 63 67 49.3448 67 32.5C67 15.6553 52.4494 2 34.5 2Z" stroke="#463E55" stroke-width="4"/>
<path d="M34.5003 32.5C40.4836 32.5 45.3337 27.9484 45.3337 22.3333C45.3337 16.7184 40.4836 12.1667 34.5003 12.1667C28.5171 12.1667 23.667 16.7184 23.667 22.3333C23.667 27.9484 28.5171 32.5 34.5003 32.5Z" stroke="#463E55" stroke-width="4"/>
<path d="M12.833 54.7552C12.833 49.2663 17.0642 42.1882 23.6663 42.1882H45.333C51.9352 42.1882 56.1663 49.2663 56.1663 54.7552" stroke="#463E55" stroke-width="4"/>
</svg>
