<svg width="30" height="24" viewBox="0 0 30 24" fill="none" xmlns="http://www.w3.org/2000/svg">
<path d="M27.0106 2.85857L27.0109 2.85889C27.6479 3.4428 28.148 4.13136 28.4875 4.88273C28.8268 5.63382 29 6.43539 29 7.24249C29 8.04959 28.8268 8.85116 28.4875 9.60225C28.148 10.3536 27.6479 11.0422 27.0109 11.6261L27.0108 11.6263L25.4895 13.0216L14.9996 22.6431L4.50976 13.0216L2.98846 11.6263C1.70352 10.4477 1 8.86866 1 7.24249C1 5.61632 1.70352 4.03729 2.98846 2.85873C4.27629 1.67751 6.04009 1.0007 7.89541 1.0007C9.75074 1.0007 11.5145 1.67751 12.8024 2.85873L14.3237 4.25409C14.7061 4.60482 15.2932 4.60482 15.6756 4.25409L17.1969 2.85873L17.197 2.85857C17.8338 2.27423 18.5945 1.8066 19.4375 1.48621C20.2806 1.1658 21.1868 1 22.1038 1C23.0208 1 23.9271 1.1658 24.7702 1.48621C25.6132 1.8066 26.3738 2.27423 27.0106 2.85857Z" stroke="black" stroke-width="2" stroke-linecap="round" stroke-linejoin="round"/>
</svg>
